<?xml version="1.0" encoding="UTF-8" standalone="no"?>
<svg
   xmlns:dc="http://purl.org/dc/elements/1.1/"
   xmlns:cc="http://creativecommons.org/ns#"
   xmlns:rdf="http://www.w3.org/1999/02/22-rdf-syntax-ns#"
   xmlns:svg="http://www.w3.org/2000/svg"
   xmlns="http://www.w3.org/2000/svg"
   xmlns:xlink="http://www.w3.org/1999/xlink"
   width="930"
   height="219"
   viewBox="0 0 930 219"
   id="svg2">
  <defs
     id="defs4">
    <linearGradient
       id="a1"
       x1="941.64545"
       x2="-105.65893"
       y1="657.1107"
       y2="657.1107"
       gradientTransform="matrix(1.2825449,0,0,0.19476003,-40.16564,-13.730514)"
       gradientUnits="userSpaceOnUse">
      <!--stop offset="0%" stop-color="#F89096"/-->
      <stop
         offset="0%"
         stop-color="#629FF4"
         id="stop7" />
      <stop
         offset="100%"
         stop-color="#59CBB7"
         id="stop9" />
    </linearGradient>
    <linearGradient
       id="a2"
       x1="187.12555"
       x2="195.51544"
       y1="297.12983"
       y2="812.99453"
       gradientTransform="matrix(1.5741477,0,0,0.15868174,305.83436,-12.849421)"
       gradientUnits="userSpaceOnUse">
      <!--stop offset="0%" stop-color="#FF4F5E"/-->
      <stop
         offset="0%"
         stop-color="#629FF4"
         id="stop12" />
      <stop
         offset="100%"
         stop-color="#59CBB7"
         id="stop14" />
    </linearGradient>
    <linearGradient
       id="a3"
       x1="303.82765"
       x2="303.82765"
       y1="233.18313"
       y2="785.38216"
       gradientTransform="matrix(1.4770474,0,0,0.16911338,251.83436,-12.54145)"
       gradientUnits="userSpaceOnUse">
      <!--stop offset="0%" stop-color="#F89096"/-->
      <stop
         offset="0%"
         stop-color="#629FF4"
         id="stop17" />
      <stop
         offset="100%"
         stop-color="#59CBB7"
         id="stop19" />
    </linearGradient>
  </defs>
  <path
     d="M-150,0 L50,0 z"
     stroke="white"
     stroke-width="1"
     fill="none"
     id="theMotionPath1" />
  <path
     d="m 31.83724,12.374525 c 104.47875,-0.80576 177.74434,58.788319 222.26547,70.325362 44.52057,11.537033 72.34819,-0.44407 100.17355,-12.423856 27.82591,-11.979791 62.14449,-18.635572 115.01413,13.311115 52.86959,31.947134 105.61896,-42.736118 105.61896,-42.736118 0,0 19.49902,-29.419714 71.49822,-28.476944 52.70974,0.955986 58.49874,35.351235 72.42702,49.097615 13.92831,13.746825 26.65451,48.093171 207.65121,48.093171 l 241.0511,0 0,8.69331 c 0,0 -243.4434,3.51336 -337.1066,6.35885 -71.9745,2.18908 -97.2042,22.53088 -106.48873,36.28255 -9.28463,13.75123 -30.64222,54.0075 -75.21214,53.51675 -44.57105,-0.49077 -62.21311,-13.25649 -94.71105,-46.15433 -32.49912,-32.89739 -87.04646,-21.00218 -110.23549,-15.67773 -23.18849,5.324 -76.05805,16.41696 -115.01355,-15.08653 C 289.81329,105.99424 250.85609,114.86861 227.6682,126.84928 204.48144,138.82951 120.79786,216.2349 31.83724,216.2349 -186.30955,214.86172 -175.18962,131.49 -175.18962,109.56531 c 0,-21.92513 -20.67496,-100.684321 207.02744,-97.190785 z"
     id="path21"
     style="opacity:0.1;fill:url(#a1);fill-rule:evenodd">
    <animateMotion
       dur="25s"
       repeatCount="indefinite">
      <mpath
         xlink:href="#theMotionPath1" />
    </animateMotion>
  </path>
  <path
     d="M0,0 L200,0 z"
     stroke="white"
     stroke-width="1"
     fill="none"
     id="theMotionPath" />
  <path
     d="m -378.53042,98.68556 c -0.39463,14.87859 414.57254,7.84615 477.97749,3.12657 63.40494,-4.72002 71.25445,-14.8896 79.70837,-21.062546 8.45278,-6.172939 39.25033,-37.764547 76.68911,-38.129321 37.43878,-0.365213 57.367,36.313387 86.3513,45.755197 28.98429,9.44223 47.1004,-7.230702 65.2165,-17.035511 18.11554,-9.804373 40.45748,-15.25217 74.87757,10.894282 34.42122,26.146449 68.23575,-26.872034 68.23575,-26.872034 0,0 11.89956,-21.06254 41.39415,-21.06254 29.49401,0 43.14502,26.146451 52.20337,36.313831 9.05777,10.167821 5.78619,34.614632 219.90961,34.614632 l 265.0805,0 0,8.00915 c 0,0 -359.01655,3.47283 -424.30334,4.40326 -46.89799,0.66787 -51.3268,18.8836 -57.37155,29.05142 -6.04475,10.16738 -19.92652,39.94614 -48.91195,39.58225 -28.986,-0.36345 -40.45236,-9.80438 -61.58829,-34.13357 C 515.80223,127.811 480.78,134.34695 465.68372,138.70396 c -15.09629,4.357 -49.51581,13.43667 -74.877,-12.34853 -25.36117,-25.78432 -50.72349,-11.65246 -65.82149,-1.8481 -15.09685,9.80482 -24.15008,28.43642 -56.15816,33.15688 -32.00809,4.71957 -50.72351,-13.07279 -69.44346,-22.51458 -18.7194,-9.4418 -56.76203,-22.15202 -171.49376,-20.69865 -114.73232,1.45292 -406.1175,-1.56395 -406.1175,-1.56395 l -0.30277,-14.20102 z"
     id="path23"
     style="opacity:0.8;fill:url(#a2);fill-rule:evenodd">
    <animateMotion
       dur="15s"
       repeatCount="indefinite">
      <mpath
         xlink:href="#theMotionPath" />
    </animateMotion>
  </path>
  <path
     d="M0,0 L-200,0 z"
     stroke="white"
     stroke-width="1"
     fill="none"
     id="theMotionPath2" />
  <path
     d="m -307.03822,104.11974 c 0,0 372.02342,-2.04898 445.63827,-4.25392 73.87171,-2.20449 96.08323,-12.048954 107.72821,-17.320535 19.51319,-8.828118 41.08343,-31.030354 75.26482,-29.794179 50.87432,1.838842 44.62262,29.750125 78.74901,38.622296 46.69329,12.138388 111.50553,-37.845612 152.62127,-6.580006 25.0998,19.085364 62.64178,-6.051353 71.60259,-16.465437 8.96082,-10.414526 24.90476,-46.066214 70.56327,-46.066214 45.65855,0 64.77538,36.242461 73.52247,45.426981 8.74762,9.18408 14.32004,29.441734 161.67171,31.144904 103.4496,1.19652 159.6957,2.49128 158.4965,2.3208 l 223.8649,0 0,12.63266 c -3.2563,0 -178.0692,2.42698 -213.2559,2.47808 -149.4319,1.91771 -242.03547,4.71562 -277.8101,8.39418 -53.66171,5.51741 -58.19088,30.71493 -65.15927,41.01403 -6.96893,10.29909 -28.57323,42.42113 -62.02545,42.05546 -33.45221,-0.36564 -48.66984,-20.57265 -73.11361,-45.20361 -15.33159,-15.4491 -34.90431,-18.184 -52.32754,-13.76973 -17.42211,4.41384 -62.60095,15.25745 -97.56593,-8.82856 -41.11745,-28.32275 -67.163,-7.80913 -87.11334,0.69474 -18.11837,7.72456 -23.69478,16.18481 -56.44846,19.4942 -22.57724,2.28116 -38.22691,-6.05136 -68.29587,-21.6987 -26.66811,-25.268 -566.79352,-18.9532 -566.79352,-18.9532 z"
     id="path25"
     style="opacity:0.4;fill:url(#a3);fill-rule:evenodd">
    <animateMotion
       dur="15s"
       repeatCount="indefinite">
      <mpath
         xlink:href="#theMotionPath2" />
    </animateMotion>
  </path>
</svg>
